<?xml version="1.0" encoding="UTF-8"?>
<svg width="24px" height="24px" viewBox="0 0 24 24" version="1.1" xmlns="http://www.w3.org/2000/svg" xmlns:xlink="http://www.w3.org/1999/xlink">
    <!-- Generator: Sketch 54.1 (76490) - https://sketchapp.com -->
    <title>Artboard</title>
    <desc>Created with Sketch.</desc>
    <g id="Artboard" stroke="none" stroke-width="1" fill="none" fill-rule="evenodd">
        <g id="content_cut(1)-(3)" transform="translate(4.000000, 4.000000)" fill="#000000" fill-rule="nonzero">
            <path d="M13.5875,0.8 L15.9875,0.8 L15.9875,1.5875 L10.4,7.2125 L8.7875,5.6 L13.5875,0.8 Z M8,8.4125 C8.225,8.4125 8.4125,8.225 8.4125,8 C8.4125,7.775 8.225,7.5875 8,7.5875 C7.775,7.5875 7.5875,7.775 7.5875,8 C7.5875,8.225 7.775,8.4125 8,8.4125 Z M3.2,14.4125 C4.0625,14.4125 4.8125,13.7 4.8125,12.8 C4.8125,11.9 4.0625,11.1875 3.2,11.1875 C2.3375,11.1875 1.5875,11.9 1.5875,12.8 C1.5875,13.7 2.3375,14.4125 3.2,14.4125 Z M3.2,4.8125 C4.0625,4.8125 4.8125,4.1 4.8125,3.2 C4.8125,2.3 4.0625,1.5875 3.2,1.5875 C2.3375,1.5875 1.5875,2.3 1.5875,3.2 C1.5875,4.1 2.3375,4.8125 3.2,4.8125 Z M6.125,4.5125 L15.9875,14.4125 L15.9875,15.2 L13.5875,15.2 L8,9.6125 L6.125,11.4875 C6.3125,11.9 6.3875,12.3125 6.3875,12.8 C6.3875,14.5625 4.9625,15.9875 3.2,15.9875 C1.4375,15.9875 0.0125,14.5625 0.0125,12.8 C0.0125,11.0375 1.4375,9.6125 3.2,9.6125 C3.6875,9.6125 4.1,9.6875 4.5125,9.875 L6.3875,8 L4.5125,6.125 C4.1,6.3125 3.6875,6.3875 3.2,6.3875 C1.4375,6.3875 0.0125,4.9625 0.0125,3.2 C0.0125,1.4375 1.4375,0.0125 3.2,0.0125 C4.9625,0.0125 6.3875,1.4375 6.3875,3.2 C6.3875,3.6875 6.3125,4.1 6.125,4.5125 Z" id="Shape"></path>
        </g>
    </g>
</svg>