<?xml version="1.0" encoding="UTF-8"?>
<svg width="24px" height="24px" viewBox="0 0 24 24" version="1.1" xmlns="http://www.w3.org/2000/svg" xmlns:xlink="http://www.w3.org/1999/xlink">
    <!-- Generator: Sketch 53.2 (72643) - https://sketchapp.com -->
    <title>Artboard</title>
    <desc>Created with Sketch.</desc>
    <g id="Artboard" stroke="none" stroke-width="1" fill="none" fill-rule="evenodd">
        <path d="M14.8636364,5 L7.22727273,5 C6.52409091,5 5.95454545,5.56954545 5.95454545,6.27272727 L5.95454545,15.1818182 L7.22727273,15.1818182 L7.22727273,6.27272727 L14.8636364,6.27272727 L14.8636364,5 Z M16.7727273,7.54545455 L9.77272727,7.54545455 C9.06954545,7.54545455 8.5,8.115 8.5,8.81818182 L8.5,17.7272727 C8.5,18.4304545 9.06954545,19 9.77272727,19 L16.7727273,19 C17.4759091,19 18.0454545,18.4304545 18.0454545,17.7272727 L18.0454545,8.81818182 C18.0454545,8.115 17.4759091,7.54545455 16.7727273,7.54545455 Z M16.7727273,17.7272727 L9.77272727,17.7272727 L9.77272727,8.81818182 L16.7727273,8.81818182 L16.7727273,17.7272727 Z" id="Shape-Copy" fill="#000000" fill-rule="nonzero"></path>
    </g>
</svg>